<svg xmlns="http://www.w3.org/2000/svg" width="48" height="48" viewBox="0 0 48 48" fill="none">
<circle cx="24" cy="24" r="24" fill="#F5FAFD"/>
<path d="M20.6667 16.5H18.1667C17.7246 16.5 17.3007 16.6756 16.9882 16.9882C16.6756 17.3007 16.5 17.7246 16.5 18.1667V20.6667M31.5 20.6667V18.1667C31.5 17.7246 31.3244 17.3007 31.0118 16.9882C30.6993 16.6756 30.2754 16.5 29.8333 16.5H27.3333M27.3333 31.5H29.8333C30.2754 31.5 30.6993 31.3244 31.0118 31.0118C31.3244 30.6993 31.5 30.2754 31.5 29.8333V27.3333M16.5 27.3333V29.8333C16.5 30.2754 16.6756 30.6993 16.9882 31.0118C17.3007 31.3244 17.7246 31.5 18.1667 31.5H20.6667" stroke="#0B091D" stroke-width="2" stroke-linecap="round" stroke-linejoin="round"/>
</svg>