<svg xmlns="http://www.w3.org/2000/svg" width="16" height="16" viewBox="0 0 16 16" fill="none">
<path d="M10.5 13.4998V12.1665C10.5 11.4593 10.2629 10.781 9.84099 10.2809C9.41903 9.7808 8.84674 9.49985 8.25 9.49985H3.75C3.15326 9.49985 2.58097 9.7808 2.15901 10.2809C1.73705 10.781 1.5 11.4593 1.5 12.1665V13.4998" stroke="#0B091D" stroke-width="1.5" stroke-linecap="round" stroke-linejoin="round"/>
<path d="M6 7.49985C7.38071 7.49985 8.5 6.38056 8.5 4.99985C8.5 3.61914 7.38071 2.49985 6 2.49985C4.61929 2.49985 3.5 3.61914 3.5 4.99985C3.5 6.38056 4.61929 7.49985 6 7.49985Z" stroke="#0B091D" stroke-width="1.5" stroke-linecap="round" stroke-linejoin="round"/>
<path d="M14.5 13.4998V12.4777C14.4996 12.0248 14.3029 11.5847 13.9409 11.2268C13.5789 10.8688 13.0721 10.6131 12.5 10.4998" stroke="#0B091D" stroke-width="1.5" stroke-linecap="round" stroke-linejoin="round"/>
<path d="M10.5 2.49985C11.0721 2.64198 11.5792 2.96482 11.9413 3.41747C12.3034 3.87012 12.5 4.42683 12.5 4.99985C12.5 5.57286 12.3034 6.12958 11.9413 6.58223C11.5792 7.03488 11.0721 7.35772 10.5 7.49985" stroke="#0B091D" stroke-width="1.5" stroke-linecap="round" stroke-linejoin="round"/>
</svg>