<svg xmlns="http://www.w3.org/2000/svg" width="48" height="48" viewBox="0 0 48 48" fill="none">
<circle cx="24" cy="24" r="24" fill="white"/>
<g clip-path="url(#clip0_173_6130)">
<path d="M24.0001 26.8636C25.5817 26.8636 26.8637 25.5815 26.8637 24C26.8637 22.4184 25.5817 21.1364 24.0001 21.1364C22.4186 21.1364 21.1365 22.4184 21.1365 24C21.1365 25.5815 22.4186 26.8636 24.0001 26.8636Z" stroke="#0B091D" stroke-width="1.5" stroke-linecap="round" stroke-linejoin="round"/>
<path d="M31.0636 26.8636C30.9366 27.1515 30.8987 27.4709 30.9548 27.7806C31.011 28.0902 31.1586 28.3759 31.3786 28.6009L31.4359 28.6582C31.6134 28.8355 31.7542 29.046 31.8503 29.2778C31.9464 29.5096 31.9958 29.758 31.9958 30.0089C31.9958 30.2597 31.9464 30.5082 31.8503 30.7399C31.7542 30.9717 31.6134 31.1822 31.4359 31.3595C31.2586 31.537 31.0481 31.6779 30.8163 31.7739C30.5845 31.87 30.3361 31.9195 30.0852 31.9195C29.8343 31.9195 29.5859 31.87 29.3542 31.7739C29.1224 31.6779 28.9118 31.537 28.7345 31.3595L28.6773 31.3023C28.4523 31.0822 28.1666 30.9346 27.8569 30.8785C27.5473 30.8223 27.2279 30.8602 26.94 30.9873C26.6577 31.1083 26.4169 31.3092 26.2473 31.5653C26.0777 31.8214 25.9867 32.1215 25.9855 32.4286V32.5909C25.9855 33.0972 25.7843 33.5828 25.4263 33.9408C25.0683 34.2989 24.5827 34.5 24.0764 34.5C23.57 34.5 23.0845 34.2989 22.7264 33.9408C22.3684 33.5828 22.1673 33.0972 22.1673 32.5909V32.505C22.1599 32.1891 22.0576 31.8826 21.8738 31.6256C21.6899 31.3685 21.433 31.1727 21.1364 31.0636C20.8485 30.9366 20.5291 30.8987 20.2194 30.9548C19.9098 31.011 19.6241 31.1586 19.3991 31.3786L19.3418 31.4359C19.1645 31.6134 18.954 31.7542 18.7222 31.8503C18.4904 31.9464 18.242 31.9958 17.9911 31.9958C17.7403 31.9958 17.4918 31.9464 17.2601 31.8503C17.0283 31.7542 16.8178 31.6134 16.6405 31.4359C16.463 31.2586 16.3221 31.0481 16.2261 30.8163C16.13 30.5845 16.0805 30.3361 16.0805 30.0852C16.0805 29.8343 16.13 29.5859 16.2261 29.3542C16.3221 29.1224 16.463 28.9118 16.6405 28.7345L16.6977 28.6773C16.9178 28.4523 17.0654 28.1666 17.1215 27.8569C17.1777 27.5473 17.1398 27.2279 17.0127 26.94C16.8917 26.6577 16.6908 26.4169 16.4347 26.2473C16.1786 26.0777 15.8785 25.9867 15.5714 25.9855H15.4091C14.9028 25.9855 14.4172 25.7843 14.0592 25.4263C13.7011 25.0683 13.5 24.5827 13.5 24.0764C13.5 23.57 13.7011 23.0845 14.0592 22.7264C14.4172 22.3684 14.9028 22.1673 15.4091 22.1673H15.495C15.8109 22.1599 16.1174 22.0576 16.3744 21.8738C16.6315 21.6899 16.8273 21.433 16.9364 21.1364C17.0634 20.8485 17.1013 20.5291 17.0452 20.2194C16.989 19.9098 16.8414 19.6241 16.6214 19.3991L16.5641 19.3418C16.3866 19.1645 16.2458 18.954 16.1497 18.7222C16.0536 18.4904 16.0042 18.242 16.0042 17.9911C16.0042 17.7403 16.0536 17.4918 16.1497 17.2601C16.2458 17.0283 16.3866 16.8178 16.5641 16.6405C16.7414 16.463 16.9519 16.3221 17.1837 16.2261C17.4155 16.13 17.6639 16.0805 17.9148 16.0805C18.1657 16.0805 18.4141 16.13 18.6458 16.2261C18.8776 16.3221 19.0882 16.463 19.2655 16.6405L19.3227 16.6977C19.5477 16.9178 19.8334 17.0654 20.1431 17.1215C20.4527 17.1777 20.7721 17.1398 21.06 17.0127H21.1364C21.4187 16.8917 21.6595 16.6908 21.8291 16.4347C21.9987 16.1786 22.0897 15.8785 22.0909 15.5714V15.4091C22.0909 14.9028 22.292 14.4172 22.6501 14.0592C23.0081 13.7011 23.4937 13.5 24 13.5C24.5063 13.5 24.9919 13.7011 25.3499 14.0592C25.708 14.4172 25.9091 14.9028 25.9091 15.4091V15.495C25.9103 15.8022 26.0013 16.1023 26.1709 16.3584C26.3405 16.6144 26.5813 16.8154 26.8636 16.9364C27.1515 17.0634 27.4709 17.1013 27.7806 17.0452C28.0902 16.989 28.3759 16.8414 28.6009 16.6214L28.6582 16.5641C28.8355 16.3866 29.046 16.2458 29.2778 16.1497C29.5096 16.0536 29.758 16.0042 30.0089 16.0042C30.2597 16.0042 30.5082 16.0536 30.7399 16.1497C30.9717 16.2458 31.1822 16.3866 31.3595 16.5641C31.537 16.7414 31.6779 16.9519 31.7739 17.1837C31.87 17.4155 31.9195 17.6639 31.9195 17.9148C31.9195 18.1657 31.87 18.4141 31.7739 18.6458C31.6779 18.8776 31.537 19.0882 31.3595 19.2655L31.3023 19.3227C31.0822 19.5477 30.9346 19.8334 30.8785 20.1431C30.8223 20.4527 30.8602 20.7721 30.9873 21.06V21.1364C31.1083 21.4187 31.3092 21.6595 31.5653 21.8291C31.8214 21.9987 32.1215 22.0897 32.4286 22.0909H32.5909C33.0972 22.0909 33.5828 22.292 33.9408 22.6501C34.2989 23.0081 34.5 23.4937 34.5 24C34.5 24.5063 34.2989 24.9919 33.9408 25.3499C33.5828 25.708 33.0972 25.9091 32.5909 25.9091H32.505C32.1978 25.9103 31.8977 26.0013 31.6416 26.1709C31.3856 26.3405 31.1846 26.5813 31.0636 26.8636Z" stroke="#0B091D" stroke-width="1.5" stroke-linecap="round" stroke-linejoin="round"/>
</g>
<defs>
<clipPath id="clip0_173_6130">
<rect width="24" height="24" fill="white" transform="translate(12 12)"/>
</clipPath>
</defs>
</svg>