<svg xmlns="http://www.w3.org/2000/svg" width="24" height="24" viewBox="0 0 24 24" fill="none">
<rect width="24" height="24" rx="8" fill="#1EE3A8"/>
<path d="M16.6667 11.3333H7.33333C6.59695 11.3333 6 11.9303 6 12.6667V17.3333C6 18.0697 6.59695 18.6667 7.33333 18.6667H16.6667C17.403 18.6667 18 18.0697 18 17.3333V12.6667C18 11.9303 17.403 11.3333 16.6667 11.3333Z" stroke="white" stroke-width="1.5" stroke-linecap="round" stroke-linejoin="round"/>
<path d="M12 13.8L12 16.2" stroke="white" stroke-width="1.5" stroke-linecap="round"/>
<path d="M8.66669 11.3333V8.66668C8.66586 7.84004 8.97221 7.04259 9.52627 6.42912C10.0803 5.81566 10.8426 5.42995 11.665 5.34687C12.4875 5.26379 13.3115 5.48928 13.977 5.97955C14.6426 6.46983 15.1022 7.18991 15.2667 8.00001" stroke="white" stroke-width="1.5" stroke-linecap="round" stroke-linejoin="round"/>
</svg>