<svg xmlns="http://www.w3.org/2000/svg" width="16" height="16" viewBox="0 0 16 16" fill="none">
<path d="M2.66663 3.33325V7.99992C2.66663 10.9456 5.05429 13.3333 7.99996 13.3333C10.9456 13.3333 13.3333 10.9456 13.3333 7.99992V3.33325" stroke="#0B091D" stroke-width="1.5"/>
<path d="M1.33331 3.33325H14.6666" stroke="#0B091D" stroke-width="1.5" stroke-linecap="round" stroke-linejoin="round"/>
<path d="M8 10C8.53043 10 9.03914 9.78929 9.41421 9.41421C9.78929 9.03914 10 8.53043 10 8C10 7.46957 9.78929 6.96086 9.41421 6.58579C9.03914 6.21071 8.53043 6 8 6C7.46957 6 6.96086 6.21071 6.58579 6.58579C6.21071 6.96086 6 7.46957 6 8C6 8.53043 6.21071 9.03914 6.58579 9.41421C6.96086 9.78929 7.46957 10 8 10Z" stroke="#0B091D" stroke-width="1.5" stroke-linejoin="round"/>
</svg>